# xmcd CD database file
#
# Track frame offsets:
#	150
#	20807
#	29594
#	53929
#	69404
#	83653
#	94001
#	107971
#	122833
#	144716
#
# Disc length: 2179 seconds
#
# Revision: 0
# Processed by: cddbd v1.5.1PL2 Copyright (c) Steve Scherf et al.
# Submitted via: CDex 1.51
#
DISCID=8d08810a
DTITLE=HAYSTACK NEEDLE - HAYSTACK NEEDLE
DYEAR=2003
DGENRE=Rock
TTITLE0=in your mind
TTITLE1=trust me
TTITLE2=think
TTITLE3=very rude
TTITLE4=3-0-over
TTITLE5=insane
TTITLE6=selfish
TTITLE7=different
TTITLE8=you make me
TTITLE9=reluctantly
EXTD=YEAR: 2003
EXTT0=
EXTT1=
EXTT2=
EXTT3=
EXTT4=
EXTT5=
EXTT6=
EXTT7=
EXTT8=
EXTT9=
PLAYORDER=
